<svg width="39" height="39" viewBox="0 0 39 39" fill="none" xmlns="http://www.w3.org/2000/svg">
<path d="M9.00005 28.98V8.18824C11.1236 7.88021 15.8256 7.7262 17.6458 9.57435C19.921 11.8845 17.1907 14.6568 16.2807 15.5809C15.3706 16.5049 9.91008 18.8151 9 17.891C9.00003 19.2772 9.00002 21.9252 9.00006 24.8216C9.00007 25.9775 9.00007 27.5938 9.00005 28.5179C10.8202 28.5179 9.91013 28.5179 13.0954 28.5179C19.0109 28.5179 18.5559 10.4984 21.2861 9.57435C23.066 8.97192 23.3176 16.7195 24.9264 18.3531C27.2016 20.6633 29.0217 10.4984 29.9318 10.4984C30.8419 10.4984 33.5 27 31.752 28.98M31.752 28.98C25 30 28.4101 24.1139 31.752 28.98Z" stroke="white"/>
<circle cx="19.5" cy="19.5" r="18.5" stroke="white"/>
</svg>