<?xml version="1.0" standalone="no"?>
<!DOCTYPE svg PUBLIC "-//W3C//DTD SVG 20010904//EN"
 "http://www.w3.org/TR/2001/REC-SVG-20010904/DTD/svg10.dtd">
<svg version="1.0" xmlns="http://www.w3.org/2000/svg"
 width="700.000000pt" height="700.000000pt" viewBox="0 0 700.000000 700.000000"
 preserveAspectRatio="xMidYMid meet">
<metadata>
Created by potrace 1.11, written by Peter Selinger 2001-2013
</metadata>
<g transform="translate(0.000000,700.000000) scale(0.100000,-0.100000)"
fill="#000000" stroke="none">
<path d="M3299 6906 c-2 -2 -47 -6 -99 -10 -52 -3 -111 -9 -130 -11 -113 -17
-286 -49 -355 -66 -44 -11 -87 -22 -96 -24 -93 -20 -353 -110 -469 -162 -574
-259 -994 -590 -1378 -1086 -210 -271 -415 -669 -524 -1017 -54 -175 -118
-466 -133 -608 -2 -20 -7 -71 -12 -112 -15 -150 -8 -598 11 -720 3 -14 7 -47
11 -75 5 -45 25 -157 40 -225 3 -14 7 -36 10 -50 9 -51 48 -188 82 -294 230
-712 699 -1337 1328 -1767 420 -288 912 -478 1430 -554 22 -4 50 -8 63 -10
164 -27 635 -27 842 0 676 88 1281 356 1795 794 540 460 942 1115 1101 1791
14 59 44 208 49 245 3 22 8 51 10 65 36 189 41 735 10 912 -3 13 -6 39 -9 58
-22 178 -77 407 -146 611 -388 1151 -1359 2008 -2547 2250 -145 29 -175 34
-273 45 -30 3 -68 8 -85 11 -36 6 -520 15 -526 9z m531 -190 c65 -9 241 -35
270 -41 14 -2 50 -10 80 -16 377 -75 821 -268 1165 -507 258 -179 547 -454
710 -677 17 -22 33 -42 36 -45 23 -19 175 -254 241 -375 155 -282 289 -652
342 -950 3 -16 8 -41 11 -55 3 -14 8 -50 11 -80 3 -30 7 -57 9 -60 10 -17 20
-214 20 -405 0 -204 -8 -354 -20 -415 -3 -14 -7 -41 -9 -60 -2 -19 -9 -64 -16
-100 -7 -36 -14 -76 -16 -90 -8 -44 -72 -283 -94 -350 -337 -1022 -1187 -1829
-2216 -2105 -116 -31 -304 -72 -373 -80 -30 -4 -62 -8 -71 -10 -105 -20 -556
-27 -725 -12 -49 5 -92 10 -95 12 -3 2 -34 6 -70 10 -35 3 -67 8 -70 10 -3 2
-21 6 -40 9 -256 41 -634 170 -890 304 -197 103 -488 298 -611 410 -19 17 -45
40 -59 52 -67 58 -239 233 -315 320 -72 84 -226 299 -292 407 -184 305 -314
624 -391 963 -35 154 -39 174 -48 250 -3 30 -8 57 -9 60 -25 42 -25 778 -1
819 2 3 7 33 11 66 22 195 124 568 206 752 11 23 19 44 19 47 0 3 29 65 64
138 342 703 940 1269 1661 1570 235 99 572 192 775 214 30 3 57 7 60 9 3 1 43
6 90 10 47 4 87 9 89 11 6 5 509 -4 561 -10z"/>
<path d="M2057 5654 c-1 -1 -65 -4 -142 -8 -77 -3 -160 -8 -185 -11 -124 -15
-194 -26 -199 -31 -3 -3 -5 -862 -6 -1910 l0 -1904 440 0 c349 1 453 4 503 15
357 83 599 446 806 1210 48 178 145 616 171 775 3 19 8 42 10 50 2 8 7 31 10
50 3 19 8 42 10 50 2 8 7 31 10 50 3 19 17 91 30 160 14 69 27 136 30 150 17
90 25 127 29 145 2 11 11 54 20 95 66 322 159 577 229 636 l30 25 24 -22 c54
-52 117 -231 193 -554 24 -99 63 -259 87 -355 24 -96 46 -185 49 -197 10 -50
68 -204 106 -281 91 -186 222 -268 356 -223 140 48 259 222 405 591 36 91 74
192 86 225 112 335 209 594 211 564 0 -4 16 -69 36 -145 35 -139 111 -501 130
-624 3 -19 10 -61 15 -93 6 -32 12 -74 15 -95 2 -20 9 -62 14 -92 5 -30 12
-73 14 -95 3 -22 10 -71 15 -110 6 -38 13 -92 16 -120 4 -27 8 -61 10 -75 2
-14 7 -52 10 -85 3 -33 8 -71 10 -85 3 -14 7 -54 10 -90 10 -119 17 -194 20
-211 2 -9 6 -72 10 -140 4 -68 9 -140 11 -159 2 -19 4 -138 4 -265 2 -257 -4
-349 -26 -458 l-6 -28 -61 58 c-76 72 -116 102 -187 141 -234 128 -502 36
-515 -176 -6 -101 54 -190 168 -246 40 -19 83 -37 97 -40 14 -2 50 -10 80 -15
51 -11 261 -15 325 -7 62 8 211 28 230 31 11 2 24 4 28 4 5 1 -1 16 -12 35
l-21 34 24 74 c25 74 30 101 41 198 3 30 8 71 10 90 5 42 6 503 1 575 -2 28
-7 95 -11 150 -11 166 -18 251 -40 450 -11 101 -55 448 -60 475 -3 14 -7 41
-9 60 -5 36 -42 275 -50 320 -3 14 -12 66 -21 115 -60 348 -136 657 -194 786
-26 58 -52 86 -95 104 -32 13 -40 13 -75 -1 -81 -32 -122 -114 -271 -544 -43
-124 -92 -261 -108 -305 -118 -321 -233 -536 -318 -594 -30 -21 -34 -21 -61
-8 -15 8 -42 35 -59 59 -80 111 -123 250 -275 888 -118 494 -206 662 -362 684
-39 6 -57 3 -100 -17 -121 -55 -201 -190 -280 -468 -35 -122 -91 -351 -102
-419 -3 -19 -8 -42 -10 -50 -2 -8 -6 -28 -9 -44 -3 -16 -10 -52 -15 -80 -6
-28 -13 -62 -15 -76 -2 -14 -16 -83 -30 -155 -14 -71 -28 -148 -32 -170 -3
-22 -8 -43 -10 -46 -2 -4 -6 -24 -10 -45 -3 -22 -12 -70 -21 -109 -8 -38 -17
-83 -20 -100 -3 -16 -16 -79 -30 -140 -13 -60 -26 -121 -29 -135 -13 -66 -107
-417 -138 -510 -164 -504 -347 -764 -580 -826 -71 -19 -732 -20 -738 -1 -2 6
-4 386 -4 842 l1 830 85 7 c232 21 587 136 904 295 171 85 228 125 326 223
411 411 503 802 261 1108 -140 177 -401 295 -746 338 -27 3 -61 8 -75 10 -67
10 -394 25 -403 18z m275 -188 c93 -6 154 -13 208 -22 14 -2 52 -8 85 -14 190
-31 375 -113 472 -209 118 -116 159 -247 125 -401 -13 -58 -60 -169 -95 -225
-29 -47 -123 -173 -151 -203 -143 -155 -197 -194 -396 -290 -297 -143 -608
-245 -792 -259 -63 -5 -78 -3 -79 8 -1 8 -2 370 -3 806 l-1 791 30 6 c16 4 95
9 175 13 80 3 146 6 147 7 4 3 186 -2 275 -8z m2954 -3422 c27 -9 71 -31 99
-49 60 -40 140 -113 132 -121 -10 -10 -187 -5 -247 7 -110 21 -199 86 -174
127 28 46 114 62 190 36z"/>
</g>
</svg>
